<?xml version="1.0" standalone="no"?>
<!DOCTYPE svg PUBLIC "-//W3C//DTD SVG 20010904//EN"
 "http://www.w3.org/TR/2001/REC-SVG-20010904/DTD/svg10.dtd">
<svg version="1.0" xmlns="http://www.w3.org/2000/svg"
 width="512.000000pt" height="512.000000pt" viewBox="0 0 512.000000 512.000000"
 preserveAspectRatio="xMidYMid meet">
<metadata>
Created by potrace 1.11, written by Peter Selinger 2001-2013
</metadata>
<g transform="translate(0.000000,512.000000) scale(0.100000,-0.100000)"
fill="#000000" stroke="none">
<path d="M3755 3824 c-210 -23 -326 -54 -469 -126 -250 -125 -464 -341 -581
-583 -87 -179 -125 -332 -132 -535 -8 -209 31 -412 113 -589 46 -101 167 -301
179 -298 5 2 75 140 156 308 81 167 312 644 514 1059 202 415 369 761 372 768
6 14 7 14 -152 -4z m-309 -476 c-481 -993 -591 -1216 -598 -1212 -12 8 -49
143 -64 234 -68 421 147 877 518 1099 68 41 221 110 245 111 7 0 -39 -105
-101 -232z"/>
<path d="M50 3005 c0 -448 3 -815 8 -815 6 1 644 1150 850 1531 l54 99 -456 0
-456 0 0 -815z m398 308 c-93 -170 -174 -315 -179 -323 -5 -9 -9 119 -9 308
l0 322 179 0 179 0 -170 -307z"/>
<path d="M884 3298 c-148 -271 -395 -727 -551 -1012 l-283 -520 0 -263 0 -263
494 0 c400 0 510 3 582 15 391 69 730 328 910 698 86 176 124 350 124 562 0
363 -127 672 -380 926 -110 111 -206 182 -337 249 -80 40 -243 100 -274 100
-13 0 -90 -134 -285 -492z m506 185 c325 -178 548 -536 567 -914 16 -314 -92
-595 -317 -820 -91 -91 -172 -149 -285 -204 -189 -91 -288 -105 -742 -105
l-353 0 0 141 0 140 338 622 c187 342 410 753 497 914 l159 292 35 -15 c20 -8
65 -31 101 -51z"/>
<path d="M4157 3783 c-15 -23 -1097 -2266 -1097 -2273 0 -12 131 -95 219 -140
178 -89 354 -130 561 -130 215 0 388 42 581 141 234 120 435 322 551 554 35
70 108 255 108 274 0 8 -233 12 -725 13 l-725 3 315 649 c173 357 316 650 319
653 7 7 106 -46 183 -99 94 -65 237 -214 297 -310 26 -42 63 -114 82 -160 20
-45 37 -84 39 -86 7 -7 178 53 182 64 6 17 -58 170 -105 250 -149 255 -370
447 -639 553 -122 48 -140 54 -146 44z m619 -1780 c-18 -45 -108 -165 -180
-238 -327 -332 -817 -416 -1228 -209 l-48 24 24 53 c13 28 61 127 106 220 l82
167 625 0 c579 0 625 -1 619 -17z"/>
</g>
</svg>
