<?xml version="1.0" standalone="no"?>
<!DOCTYPE svg PUBLIC "-//W3C//DTD SVG 20010904//EN"
 "http://www.w3.org/TR/2001/REC-SVG-20010904/DTD/svg10.dtd">
<svg version="1.0" xmlns="http://www.w3.org/2000/svg"
 width="254.000000pt" height="254.000000pt" viewBox="0 0 254.000000 254.000000"
 preserveAspectRatio="xMidYMid meet">
<metadata>
Created by potrace 1.11, written by Peter Selinger 2001-2013
</metadata>
<g transform="translate(0.000000,254.000000) scale(0.100000,-0.100000)"
fill="#000000" stroke="none">
<path d="M1815 2524 c-98 -14 -174 -42 -251 -93 -244 -158 -348 -462 -253
-739 20 -57 97 -202 108 -202 4 0 17 24 30 53 13 28 127 261 253 516 125 255
228 467 228 472 0 9 -10 9 -115 -7z m-55 -118 c0 -2 -78 -163 -174 -357 l-173
-354 -18 55 c-37 121 -24 265 37 390 42 86 150 194 238 237 59 30 90 40 90 29z"/>
<path d="M29 2498 c-1 -51 -1 -742 0 -753 1 -9 17 16 75 120 265 471 357 635
362 649 6 14 -15 16 -215 16 l-221 0 -1 -32z m257 -106 c-12 -20 -53 -92 -90
-159 -37 -68 -68 -123 -70 -123 -2 0 1 296 3 315 1 6 36 9 91 7 l89 -3 -23
-37z"/>
<path d="M548 2471 c-13 -25 -100 -183 -193 -351 -92 -168 -181 -330 -198
-360 -16 -30 -52 -94 -79 -142 l-48 -87 -2 -125 c-1 -70 2 -129 5 -133 4 -3
116 -6 249 -5 271 0 333 9 441 63 160 81 280 225 328 394 21 76 19 276 -4 345
-73 215 -230 374 -430 434 l-44 13 -25 -46z m192 -137 c151 -108 228 -260 228
-448 0 -109 -19 -179 -72 -270 -62 -107 -201 -207 -326 -236 -50 -12 -407 -22
-436 -13 -7 3 -10 30 -9 71 2 62 7 75 62 172 33 58 81 146 108 195 27 50 57
106 68 125 19 34 36 65 186 337 l72 132 37 -17 c20 -9 57 -31 82 -48z"/>
<path d="M1967 2318 c-52 -106 -174 -354 -271 -551 -97 -197 -176 -362 -176
-366 0 -9 94 -66 142 -86 115 -47 280 -60 393 -30 143 38 287 138 369 258 35
50 97 186 91 197 -2 3 -164 5 -359 5 -196 0 -356 1 -356 2 0 9 306 632 315
641 2 2 31 -12 63 -32 81 -49 165 -142 204 -225 l31 -67 44 15 c39 14 43 19
38 41 -27 109 -180 281 -305 342 -135 66 -115 79 -223 -144z m403 -674 c0 -14
-63 -94 -103 -131 -74 -69 -166 -118 -262 -140 -37 -8 -170 -5 -216 6 -62 14
-139 48 -139 61 0 6 22 55 50 109 l49 99 311 1 c170 0 310 -3 310 -5z"/>
<path d="M1574 900 c-61 -148 -107 -270 -102 -270 24 0 89 43 102 68 12 24 96
226 171 415 l24 57 -42 0 -42 0 -111 -270z"/>
<path d="M355 804 c-126 -79 -258 -162 -292 -183 l-62 -39 2 -63 2 -63 90 -57
c50 -32 181 -114 293 -184 l203 -126 20 23 c43 51 44 50 -59 115 -350 219
-452 286 -452 293 0 4 69 49 153 101 83 52 173 107 199 124 26 16 81 51 123
77 l75 48 -26 40 c-15 22 -29 40 -33 39 -3 -1 -109 -66 -236 -145z"/>
<path d="M1922 923 c-10 -16 -22 -33 -25 -40 -5 -7 92 -73 268 -184 151 -95
275 -176 275 -180 0 -4 -86 -61 -190 -126 -105 -65 -228 -142 -275 -171 l-85
-53 19 -28 c40 -55 37 -56 177 33 71 45 136 85 144 89 8 4 80 49 160 100 l145
93 0 64 0 64 -267 165 c-147 91 -280 174 -297 184 -29 17 -30 17 -49 -10z"/>
<path d="M1455 522 c-49 -27 -49 -27 -111 -177 -34 -82 -69 -166 -78 -185 -43
-100 -56 -144 -47 -150 11 -6 70 -5 75 2 8 11 216 531 214 534 -2 1 -26 -9
-53 -24z"/>
</g>
</svg>
